<?xml version="1.0" encoding="utf-8"?>
<!-- Generator: Adobe Illustrator 26.3.1, SVG Export Plug-In . SVG Version: 6.00 Build 0)  -->
<svg version="1.1" id="Layer_1" xmlns="http://www.w3.org/2000/svg" xmlns:xlink="http://www.w3.org/1999/xlink" x="0px" y="0px"
	 viewBox="0 0 500 500" style="enable-background:new 0 0 500 500;" xml:space="preserve">
<g>
	<path d="M169.5,175.4c-5,20.8-17.4,57.2-26.7,85.5h54.4c-6.5-20.5-21.1-63.7-27.4-85.5H169.5z"/>
	<path d="M347.6,222c-21.4,0-31.1,16.5-33.6,31.7h46.3c11.8,0,15.9,0,17.1-0.3c0-0.9,0-2.2,0-2.5C377.4,241.9,371.2,222,347.6,222z"
		/>
	<path d="M405.5-0.2H94.5C42.2-0.2-0.2,42.2-0.2,94.5v310.9c0,52.3,42.4,94.7,94.7,94.7h310.9c52.3,0,94.7-42.4,94.7-94.7V94.5
		C500.2,42.2,457.8-0.2,405.5-0.2z M263.1,348.5h-34.8c-1.6,0-2.5-0.6-3.1-1.9l-18-51.9h-74.3L115.7,346c-0.6,1.9-1.6,2.5-3.4,2.5
		H81.2c-1.9,0-2.5-0.9-2.2-3.1l64-182.1c1.2-3.1,2.2-6.2,2.8-16.8c0-1.2,0.6-2.2,1.9-2.2h43.2c1.6,0,1.9,0.3,2.2,1.9l71.8,199.6
		C265.2,347.6,264.9,348.5,263.1,348.5z M411.6,277c-0.3,1.2-0.9,1.9-2.5,2.2c-4.4,0.9-16.8,1.2-32,1.2H314
		c0.9,21.8,15.2,39.2,46.9,39.2c14,0,26.7-2.5,38.5-7.5c0.9-0.6,1.9-0.3,1.9,1.2v25.8c0,1.9-0.6,2.8-1.9,3.4
		c-11.8,5.6-25.5,9-46.6,9c-56.6,0-76.8-39.8-76.8-78c0-43.2,26.1-81.4,73-81.4c46,0,63.7,36.1,63.7,65.6
		C412.9,266.5,412.6,273.6,411.6,277z"/>
</g>
</svg>
