<?xml version="1.0" encoding="utf-8"?>
<!-- Generator: Adobe Illustrator 26.3.1, SVG Export Plug-In . SVG Version: 6.00 Build 0)  -->
<svg version="1.1" id="Layer_1" xmlns="http://www.w3.org/2000/svg" xmlns:xlink="http://www.w3.org/1999/xlink" x="0px" y="0px"
	 viewBox="0 0 500 500" style="enable-background:new 0 0 500 500;" xml:space="preserve">
<g>
	<path d="M208,175.4c-5,20.8-17.4,57.2-26.7,85.5h54.4c-6.5-20.5-21.1-63.7-27.4-85.5H208z"/>
	<path d="M405.5-0.2H94.5C42.2-0.2-0.2,42.2-0.2,94.5v310.9c0,52.3,42.4,94.7,94.7,94.7h310.9c52.3,0,94.7-42.4,94.7-94.7V94.5
		C500.2,42.2,457.8-0.2,405.5-0.2z M301.6,348.5h-34.8c-1.6,0-2.5-0.6-3.1-1.9l-18-51.9h-74.3L154.3,346c-0.6,1.9-1.6,2.5-3.4,2.5
		h-31.1c-1.9,0-2.5-0.9-2.2-3.1l64-182.1c1.2-3.1,2.2-6.2,2.8-16.8c0-1.2,0.6-2.2,1.9-2.2h43.2c1.6,0,1.9,0.3,2.2,1.9l71.8,199.6
		C303.8,347.6,303.5,348.5,301.6,348.5z M364.1,346c0,1.9-0.6,2.5-2.8,2.5h-32c-2.2,0-3.1-0.9-3.1-2.8V197.5c0-1.6,0.9-2.2,2.5-2.2
		h32.9c1.9,0,2.5,0.3,2.5,2.2V346z M345.1,174.5c-12.7,0-21.1-8.7-21.1-21.4c0-12.7,9-21.4,21.4-21.4c13.4,0,21.1,9,21.1,21.4
		C366.6,165.7,358.2,174.5,345.1,174.5z"/>
</g>
</svg>
