<?xml version="1.0" encoding="utf-8"?>
<!-- Generator: Adobe Illustrator 26.3.1, SVG Export Plug-In . SVG Version: 6.00 Build 0)  -->
<svg version="1.1" id="Layer_1" xmlns="http://www.w3.org/2000/svg" xmlns:xlink="http://www.w3.org/1999/xlink" x="0px" y="0px"
	 viewBox="0 0 500 500" style="enable-background:new 0 0 500 500;" xml:space="preserve">
<g>
	<path d="M255.1,271.4c0,33.9,20.2,47.8,45,47.8c6.2,0,12.4-0.6,18-2.5v-91c-4-1.6-9-2.2-14.6-2.2
		C275.9,223.6,255.1,241.3,255.1,271.4z"/>
	<path d="M405.3,0H94.7C42.4,0,0,42.4,0,94.7v310.7C0,457.6,42.4,500,94.7,500h310.7c52.3,0,94.7-42.4,94.7-94.7V94.7
		C500,42.4,457.6,0,405.3,0z M185.2,345.6c0,2.2-0.6,2.8-2.5,2.8h-32.6c-1.9,0-2.5-0.9-2.5-2.8V146.9c0-2.2,0.9-2.5,2.5-2.5h32.6
		c1.9,0,2.5,0.6,2.5,2.5V345.6z M354.8,339.4c-20.2,8.7-40.1,12.1-58.7,12.1c-45,0-79.5-26.1-79.5-78.3c0-45,33.5-81.1,88.2-81.1
		c4.3,0,8.1,0.3,13.4,0.9v-63.7c0-1.6,0.6-2.2,1.9-2.2h33.9c1.6,0,1.6,0.6,1.6,1.9v187.6c0,6.2,0.6,14.3,1.2,19.9
		C356.7,338.2,356.4,338.8,354.8,339.4z"/>
</g>
</svg>
