<?xml version="1.0" encoding="utf-8"?>
<!-- Generator: Adobe Illustrator 26.3.1, SVG Export Plug-In . SVG Version: 6.00 Build 0)  -->
<svg version="1.1" id="Layer_1" xmlns="http://www.w3.org/2000/svg" xmlns:xlink="http://www.w3.org/1999/xlink" x="0px" y="0px"
	 viewBox="0 0 567 171" style="enable-background:new 0 0 567 171;" xml:space="preserve">
<style type="text/css">
	.st0{fill:#FFFFFF;}
	.st1{fill:#03A9FF;}
</style>
<g>
	<polygon class="st0" points="13.6,55 13.6,41.3 81.7,41.3 81.7,27.7 0,27.7 0,41.3 0,41.3 0,94.6 14.8,109.4 81.7,109.4 81.7,75.4 
		81.7,75.4 81.7,64.2 40.9,64.2 40.9,77.9 68.1,77.9 68.1,82.8 68.1,82.8 68.1,95.8 20.4,95.8 13.6,89 13.6,75.4 	"/>
	<g>
		<polygon class="st1" points="107.8,64.2 84.3,64.2 84.3,77.9 102.2,77.9 109,84.7 109,129.7 61.3,129.7 54.5,122.8 54.5,112.7 
			40.9,112.7 40.9,128.5 55.7,143.3 122.6,143.3 122.6,79 		"/>
		<rect x="40.9" y="80.4" class="st1" width="13.6" height="12.8"/>
	</g>
</g>
<g>
	<path class="st0" d="M190.5,51.2h-36.4v10.7l11.2,11.2h17.9V62.1h7.3v18.2h-28.2l-15.4-15.4V44h43.7V51.2z"/>
	<path class="st0" d="M242.1,44.1v28.5l-7.9,7.9h-27.8l-7.9-7.9V44.1h7.3v25.5l3.6,3.6h21.8l3.6-3.6V44.1H242.1z"/>
	<path class="st0" d="M250.1,44h7.3v36.4h-7.3V44z"/>
	<path class="st0" d="M309,73.1v7.3h-43.7V44h7.3v29.1H309z"/>
	<path class="st0" d="M360.6,80.3h-7.3V65.8h-29.1v14.5h-7.3V44h7.3v14.5h29.1V44h7.3V80.3z"/>
	<path class="st0" d="M368.5,44h43.7v7.3h-43.7V44z M368.5,72.4V58.5h36.4v7.3h-29.1v3.6l3.6,3.6h32.7v7.3h-35.7L368.5,72.4z"/>
	<path class="st0" d="M452.9,62.1l10.9,18.2h-8.5l-8.7-14.5h-19.2v14.5h-7.3V58.5h26.1l7.3-7.3h-33.4V44h43.7v7.3L452.9,62.1z"/>
	<path class="st0" d="M471.7,80.3V44h7.3l14.6,12.8L508.1,44h7.3v36.4h-7.3V53.6l-14.6,12.8L479,53.6v26.7H471.7z"/>
	<path class="st0" d="M523.3,44H567v7.3h-43.7V44z M523.3,72.4V58.5h36.4v7.3h-29.1v3.6l3.6,3.6H567v7.3h-35.7L523.3,72.4z"/>
</g>
<g>
	<path class="st0" d="M190.5,101.3v28.5h-35.7l-7.9-7.9V93.4h35.7L190.5,101.3z M183.2,104.3l-3.6-3.6h-25.5v18.2l3.6,3.6h25.5
		V104.3z"/>
	<path class="st0" d="M242.1,122.5v7.3h-43.7V93.4h7.3v29.1H242.1z"/>
	<path class="st0" d="M250.1,93.4h7.3v36.4h-7.3V93.4z"/>
	<path class="st0" d="M309,93.4v21.8l-18.2,14.5h-7.3l-18.2-14.5V93.4h7.3v18.3l13.5,10.8h2.2l13.5-10.8V93.4H309z"/>
	<path class="st0" d="M316.9,93.4h43.7v7.3h-43.7V93.4z M316.9,121.8v-13.9h36.4v7.3h-29.1v3.6l3.6,3.6h32.7v7.3h-35.7L316.9,121.8z
		"/>
	<path class="st0" d="M368.6,93.4h7.3v36.4h-7.3V93.4z"/>
	<path class="st0" d="M416.5,111.6l10.9,18.2H419l-8.7-14.5h-19.2v14.5h-7.3v-21.8h26.1l7.3-7.3h-33.4v-7.3h43.7v7.3L416.5,111.6z"
		/>
	<path class="st0" d="M457.2,102.4l-10.1,20.1h12l3.6,7.3h-27.4l18.2-36.4h7.3l18.2,36.4h-8.1L457.2,102.4z"/>
</g>
</svg>
