<?xml version="1.0" encoding="utf-8"?>
<!-- Generator: Adobe Illustrator 26.3.1, SVG Export Plug-In . SVG Version: 6.00 Build 0)  -->
<svg version="1.1" id="Layer_1" xmlns="http://www.w3.org/2000/svg" xmlns:xlink="http://www.w3.org/1999/xlink" x="0px" y="0px"
	 viewBox="0 0 567 171" style="enable-background:new 0 0 567 171;" xml:space="preserve">
<style type="text/css">
	.st0{fill:#03A9FF;}
</style>
<g>
	<g>
		<polygon points="14,54 14,40 84.2,40 84.2,25.9 0,25.9 0,40 0,40 0,94.9 15.3,110.2 84.2,110.2 84.2,75.1 84.2,75.1 84.2,63.6 
			42.1,63.6 42.1,77.6 70.2,77.6 70.2,82.7 70.2,82.7 70.2,96.1 21.1,96.1 14,89.1 14,75.1 		"/>
		<g>
			<polygon class="st0" points="111.1,63.6 86.9,63.6 86.9,77.6 105.3,77.6 112.3,84.6 112.3,131 63.2,131 56.2,124 56.2,113.5 
				42.1,113.5 42.1,129.8 57.4,145.1 126.4,145.1 126.4,78.8 			"/>
			<rect x="42.1" y="80.3" class="st0" width="14" height="13.2"/>
		</g>
	</g>
	<g>
		<path d="M188,51h-36.6v10.7L162.6,73h18V62h7.3v18.3h-28.4L144,64.8V43.7H188V51z"/>
		<path d="M239.9,43.9v28.7l-8,8h-28l-8-8V43.9h7.3v25.6l3.7,3.7h22l3.7-3.7V43.9H239.9z"/>
		<path d="M248,43.7h7.3v36.6H248V43.7z"/>
		<path d="M307.3,73v7.3h-43.9V43.7h7.3V73H307.3z"/>
		<path d="M359.2,80.3h-7.3V65.7h-29.3v14.6h-7.3V43.7h7.3v14.6h29.3V43.7h7.3V80.3z"/>
		<path d="M367.2,43.7h43.9V51h-43.9V43.7z M367.2,72.4v-14h36.6v7.3h-29.3v3.7l3.7,3.7h33v7.3h-36L367.2,72.4z"/>
		<path d="M452.1,62l11,18.3h-8.5l-8.8-14.6h-19.3v14.6h-7.3v-22h26.3l7.3-7.3h-33.6v-7.3h43.9V51L452.1,62z"/>
		<path d="M471.1,80.3V43.7h7.3l14.6,12.9l14.6-12.9h7.3v36.6h-7.3V53.5l-14.6,12.9l-14.6-12.9v26.9H471.1z"/>
		<path d="M523.1,43.7H567V51h-43.9V43.7z M523.1,72.4v-14h36.6v7.3h-29.3v3.7L534,73h33v7.3h-36L523.1,72.4z"/>
	</g>
	<g>
		<path d="M188,101.4v28.7h-36l-8-8V93.5h36L188,101.4z M180.7,104.4l-3.7-3.7h-25.6v18.3l3.7,3.7h25.6V104.4z"/>
		<path d="M239.9,122.8v7.3H196V93.5h7.3v29.3H239.9z"/>
		<path d="M248,93.5h7.3v36.6H248V93.5z"/>
		<path d="M307.3,93.5v22l-18.3,14.6h-7.3l-18.3-14.6v-22h7.3v18.5l13.6,10.8h2.2l13.6-10.8V93.5H307.3z"/>
		<path d="M315.3,93.5h43.9v7.3h-43.9V93.5z M315.3,122.1v-14h36.6v7.3h-29.3v3.7l3.7,3.7h33v7.3h-36L315.3,122.1z"/>
		<path d="M367.3,93.5h7.3v36.6h-7.3V93.5z"/>
		<path d="M415.5,111.8l11,18.3H418l-8.8-14.6h-19.3v14.6h-7.3v-22h26.3l7.3-7.3h-33.6v-7.3h43.9v7.3L415.5,111.8z"/>
		<path d="M456.5,102.5l-10.1,20.2h12.1l3.7,7.3h-27.6l18.3-36.6h7.3l18.3,36.6h-8.2L456.5,102.5z"/>
	</g>
</g>
</svg>
