<?xml version="1.0" encoding="utf-8"?>
<!-- Generator: Adobe Illustrator 26.3.1, SVG Export Plug-In . SVG Version: 6.00 Build 0)  -->
<svg version="1.1" id="Layer_1" xmlns="http://www.w3.org/2000/svg" xmlns:xlink="http://www.w3.org/1999/xlink" x="0px" y="0px"
	 viewBox="0 0 500 500" style="enable-background:new 0 0 500 500;" xml:space="preserve">
<g>
	<path d="M180.4,176.2c-10.9,0-19.6,0.3-23,0.6v72c5.3,0.3,9.3,0.3,19.6,0.3c26.1,0,48.1-8.7,48.1-36.9
		C225.1,189.6,209,176.2,180.4,176.2z"/>
	<path d="M405.4-0.1H94.9C42.6-0.1,0.2,42.3,0.2,94.6v310.5c0,52.3,42.4,94.6,94.6,94.6h310.5c52.3,0,94.6-42.4,94.6-94.6V94.6
		C500,42.3,457.6-0.1,405.4-0.1z M177,282.1c-9.9,0-12.4,0-19.6,0v63.6c0,1.6-0.6,2.5-2.5,2.5h-32.6c-1.6,0-2.5-0.6-2.5-2.2V147
		c0-1.6,0.6-2.5,2.2-2.5c11.8-0.3,34.8-0.9,57.4-0.9c60.2,0,82.6,33.5,82.6,67.7C262.1,260.7,223.9,282.1,177,282.1z M334.1,351.3
		c-18.3,0-34.5-3.4-43.8-8.7c-1.6-0.9-2.2-1.6-2.2-3.4v-29.5c0-1.6,1.2-2.2,2.5-1.6c13.3,8.7,30.4,12.4,44.4,12.4
		c16.1,0,23.9-5.6,23.9-13.7c0-7.8-5.9-12.7-25.1-20.5c-33.8-12.4-45.9-26.4-45.9-48.7c0-23.6,19.2-45.6,58.1-45.6
		c18,0,31.7,2.5,39.1,6.2c1.6,0.9,1.9,2.2,1.9,3.7v27.3c0,1.6-0.9,2.5-2.8,1.9c-9.6-5.3-25.1-9-38.8-9c-16.5,0-22,6.8-22,13.3
		c0,6.8,4.7,11.5,24.5,19.2c35.4,13,47.5,27,47.5,49C395.2,333,372.3,351.3,334.1,351.3z"/>
</g>
</svg>
