<?xml version="1.0" encoding="utf-8"?>
<!-- Generator: Adobe Illustrator 26.3.1, SVG Export Plug-In . SVG Version: 6.00 Build 0)  -->
<svg version="1.1" id="Layer_1" xmlns="http://www.w3.org/2000/svg" xmlns:xlink="http://www.w3.org/1999/xlink" x="0px" y="0px"
	 viewBox="0 0 500 500" style="enable-background:new 0 0 500 500;" xml:space="preserve">
<g>
	<path d="M193.2,176.4c-10.9,0-19.6,0.3-23,0.6v72.1c5.3,0.3,9.3,0.3,19.6,0.3c26.1,0,48.1-8.7,48.1-37
		C237.9,189.7,221.7,176.4,193.2,176.4z"/>
	<path d="M405.3,0H94.7C42.4,0,0,42.4,0,94.7v310.7C0,457.6,42.4,500,94.7,500h310.7c52.3,0,94.7-42.4,94.7-94.7V94.7
		C500,42.4,457.6,0,405.3,0z M189.7,282.3c-9.9,0-12.4,0-19.6,0V346c0,1.6-0.6,2.5-2.5,2.5h-32.6c-1.6,0-2.5-0.6-2.5-2.2V147.2
		c0-1.6,0.6-2.5,2.2-2.5c11.8-0.3,34.8-0.9,57.5-0.9c60.3,0,82.6,33.5,82.6,67.7C274.8,260.9,236.6,282.3,189.7,282.3z M390.1,227.3
		c0,1.6-0.6,2.2-2.8,2.2c-22.1-0.6-40.4,7.1-47.5,16.5v100c0,1.9-0.9,2.5-2.8,2.5h-32.3c-2.2,0-2.8-0.9-2.8-2.5V238.8
		c0-13.4-0.3-31.4-1.6-41.6c0-1.6,0.3-1.9,1.9-1.9h29.2c1.9,0,2.8,0.6,3.4,2.5c1.6,4,2.8,11.8,3.1,18.6c10.6-13,28.3-24.2,49.7-24.2
		c1.9,0,2.5,0.3,2.5,2.2V227.3z"/>
</g>
</svg>
