<?xml version="1.0" encoding="utf-8"?>
<!-- Generator: Adobe Illustrator 26.3.1, SVG Export Plug-In . SVG Version: 6.00 Build 0)  -->
<svg version="1.1" id="Layer_1" xmlns="http://www.w3.org/2000/svg" xmlns:xlink="http://www.w3.org/1999/xlink" x="0px" y="0px"
	 viewBox="0 0 500 500" style="enable-background:new 0 0 500 500;" xml:space="preserve">
<g>
	<path d="M297.8,271.4c0,33.9,20.2,47.8,45,47.8c6.2,0,12.4-0.6,18-2.5v-91c-4-1.6-9-2.2-14.6-2.2
		C318.6,223.6,297.8,241.3,297.8,271.4z"/>
	<path d="M405.3,0H94.7C42.4,0,0,42.4,0,94.7v310.7C0,457.6,42.4,500,94.7,500h310.7c52.3,0,94.7-42.4,94.7-94.7V94.7
		C500,42.4,457.6,0,405.3,0z M252.2,348.4H214c-2.5,0-3.7-0.6-4.7-2.5c-14.9-25.5-30.1-51.2-45.3-78h-0.3
		c-14,26.1-28.6,52.5-43.2,78c-0.9,1.9-1.9,2.5-3.7,2.5H80.4c-2.2,0-2.2-1.9-1.2-3.1l60.9-99.4l-59.6-98.8c-0.9-1.6,0-2.8,1.6-2.8
		h37.9c1.9,0,2.8,0.3,3.7,2.2c13.7,25.8,29.2,51.2,43.2,77h0.3c13.7-25.8,28.3-51.2,42.6-76.7c0.6-1.6,1.6-2.5,3.7-2.5h34.8
		c1.9,0,2.2,1.2,1.2,3.1l-58.7,96l62.7,101.9C254.7,346.9,253.7,348.1,252.2,348.4z M397.5,339.4c-20.2,8.7-40.1,12.1-58.7,12.1
		c-45,0-79.5-26.1-79.5-78.3c0-45,33.5-81.1,88.2-81.1c4.3,0,8.1,0.3,13.4,0.9v-63.7c0-1.6,0.6-2.2,1.9-2.2h33.9
		c1.6,0,1.6,0.6,1.6,1.9v187.6c0,6.2,0.6,14.3,1.2,19.9C399.4,338.2,399.1,338.8,397.5,339.4z"/>
</g>
</svg>
